<?xml version="1.0" standalone="no"?>
<!DOCTYPE svg PUBLIC "-//W3C//DTD SVG 20010904//EN"
 "http://www.w3.org/TR/2001/REC-SVG-20010904/DTD/svg10.dtd">
<svg version="1.0" xmlns="http://www.w3.org/2000/svg"
 width="300.000000pt" height="300.000000pt" viewBox="0 0 300.000000 300.000000"
 preserveAspectRatio="xMidYMid meet">

<g transform="translate(0.000000,300.000000) scale(0.100000,-0.100000)"
fill="#000000" stroke="none">
<path d="M38 2971 l-33 -29 0 -1442 0 -1442 33 -29 32 -29 1431 0 1431 0 34
34 34 34 0 1432 0 1432 -34 34 -34 34 -1431 0 -1431 0 -32 -29z m1662 -945
c63 -34 115 -83 145 -137 l30 -54 3 -443 3 -443 -133 3 -133 3 -5 380 c-5 408
-5 402 -60 449 -51 42 -89 47 -377 44 l-268 -3 -3 -437 -2 -438 -135 0 -135 0
0 550 0 551 518 -3 c483 -3 519 -4 552 -22z m670 -526 l0 -550 -135 0 -135 0
0 550 0 550 135 0 135 0 0 -550z m-970 -216 l0 -334 -140 0 -140 0 0 333 c0
184 2 336 4 338 2 2 65 3 140 1 l136 -3 0 -335z"/>
</g>
</svg>
